<svg xmlns="http://www.w3.org/2000/svg" version="1.1" xmlns:xlink="http://www.w3.org/1999/xlink" xmlns:svgjs="http://svgjs.dev/svgjs" viewBox="0 0 800 800"><defs><linearGradient x1="50%" y1="0%" x2="50%" y2="100%" id="ffflurry-grad" gradientTransform="rotate(270)"><stop stop-color="hsl(0, 0%, 100%)" stop-opacity="1" offset="0%"></stop><stop stop-color="hsl(162, 100%, 58%)" stop-opacity="1" offset="45%"></stop><stop stop-color="hsl(270, 73%, 53%)" stop-opacity="1" offset="100%"></stop></linearGradient></defs><rect width="100%" height="100%" fill="hsl(0, 0%, 100%)"></rect><g fill="url(#ffflurry-grad)"><rect width="335" height="1" x="590.5" y="647.5" rx="0.5" transform="rotate(45, 758, 648)" opacity="0.20"></rect><rect width="39" height="1" x="357.5" y="257.5" rx="0.5" transform="rotate(45, 377, 258)" opacity="0.14"></rect><rect width="84" height="1" x="422" y="189.5" rx="0.5" transform="rotate(45, 464, 190)" opacity="0.20"></rect><rect width="226" height="1" x="629" y="749.5" rx="0.5" transform="rotate(45, 742, 750)" opacity="0.38"></rect><rect width="470" height="1" x="266" y="86.5" rx="0.5" transform="rotate(45, 501, 87)" opacity="0.14"></rect><rect width="235" height="1" x="124.5" y="669.5" rx="0.5" transform="rotate(45, 242, 670)" opacity="0.96"></rect><rect width="182" height="1" x="687" y="158.5" rx="0.5" transform="rotate(45, 778, 159)" opacity="0.86"></rect><rect width="599" height="1" x="-177.5" y="429.5" rx="0.5" transform="rotate(45, 122, 430)" opacity="0.27"></rect><rect width="107" height="1" x="520.5" y="670.5" rx="0.5" transform="rotate(45, 574, 671)" opacity="0.73"></rect><rect width="317" height="1" x="202.5" y="438.5" rx="0.5" transform="rotate(45, 361, 439)" opacity="0.11"></rect><rect width="135" height="1" x="348.5" y="769.5" rx="0.5" transform="rotate(45, 416, 770)" opacity="0.46"></rect><rect width="224" height="1" x="445" y="183.5" rx="0.5" transform="rotate(45, 557, 184)" opacity="0.21"></rect><rect width="374" height="1" x="355" y="25.5" rx="0.5" transform="rotate(45, 542, 26)" opacity="0.17"></rect><rect width="334" height="1" x="313" y="546.5" rx="0.5" transform="rotate(45, 480, 547)" opacity="0.32"></rect><rect width="46" height="1" x="12" y="697.5" rx="0.5" transform="rotate(45, 35, 698)" opacity="0.46"></rect><rect width="362" height="1" x="181" y="72.5" rx="0.5" transform="rotate(45, 362, 73)" opacity="0.09"></rect><rect width="66" height="1" x="317" y="611.5" rx="0.5" transform="rotate(45, 350, 612)" opacity="0.17"></rect><rect width="188" height="1" x="204" y="728.5" rx="0.5" transform="rotate(45, 298, 729)" opacity="0.36"></rect><rect width="318" height="1" x="433" y="540.5" rx="0.5" transform="rotate(45, 592, 541)" opacity="0.47"></rect><rect width="220" height="1" x="207" y="777.5" rx="0.5" transform="rotate(45, 317, 778)" opacity="0.25"></rect><rect width="43" height="1" x="330.5" y="737.5" rx="0.5" transform="rotate(45, 352, 738)" opacity="0.92"></rect><rect width="222" height="1" x="-64" y="594.5" rx="0.5" transform="rotate(45, 47, 595)" opacity="0.21"></rect><rect width="417" height="1" x="47.5" y="84.5" rx="0.5" transform="rotate(45, 256, 85)" opacity="0.48"></rect><rect width="353" height="1" x="-124.5" y="466.5" rx="0.5" transform="rotate(45, 52, 467)" opacity="0.27"></rect><rect width="143" height="1" x="248.5" y="489.5" rx="0.5" transform="rotate(45, 320, 490)" opacity="0.44"></rect><rect width="45" height="1" x="381.5" y="529.5" rx="0.5" transform="rotate(45, 404, 530)" opacity="0.50"></rect><rect width="281" height="1" x="-107.5" y="183.5" rx="0.5" transform="rotate(45, 33, 184)" opacity="0.87"></rect><rect width="406" height="1" x="332" y="550.5" rx="0.5" transform="rotate(45, 535, 551)" opacity="0.71"></rect><rect width="54" height="1" x="10" y="780.5" rx="0.5" transform="rotate(45, 37, 781)" opacity="0.23"></rect><rect width="221" height="1" x="593.5" y="249.5" rx="0.5" transform="rotate(45, 704, 250)" opacity="0.85"></rect><rect width="38" height="1" x="746" y="317.5" rx="0.5" transform="rotate(45, 765, 318)" opacity="0.44"></rect><rect width="181" height="1" x="-77.5" y="579.5" rx="0.5" transform="rotate(45, 13, 580)" opacity="0.70"></rect><rect width="256" height="1" x="256" y="150.5" rx="0.5" transform="rotate(45, 384, 151)" opacity="0.09"></rect><rect width="334" height="1" x="32" y="27.5" rx="0.5" transform="rotate(45, 199, 28)" opacity="0.76"></rect><rect width="142" height="1" x="694" y="464.5" rx="0.5" transform="rotate(45, 765, 465)" opacity="0.76"></rect><rect width="158" height="1" x="509" y="347.5" rx="0.5" transform="rotate(45, 588, 348)" opacity="0.57"></rect><rect width="59" height="1" x="429.5" y="709.5" rx="0.5" transform="rotate(45, 459, 710)" opacity="0.53"></rect><rect width="260" height="1" x="73" y="609.5" rx="0.5" transform="rotate(45, 203, 610)" opacity="0.24"></rect><rect width="364" height="1" x="-34" y="717.5" rx="0.5" transform="rotate(45, 148, 718)" opacity="0.23"></rect><rect width="382" height="1" x="395" y="82.5" rx="0.5" transform="rotate(45, 586, 83)" opacity="0.93"></rect><rect width="235" height="1" x="11.5" y="643.5" rx="0.5" transform="rotate(45, 129, 644)" opacity="0.72"></rect><rect width="125" height="1" x="597.5" y="530.5" rx="0.5" transform="rotate(45, 660, 531)" opacity="0.53"></rect><rect width="256" height="1" x="291" y="318.5" rx="0.5" transform="rotate(45, 419, 319)" opacity="0.11"></rect><rect width="415" height="1" x="-13.5" y="91.5" rx="0.5" transform="rotate(45, 194, 92)" opacity="0.77"></rect><rect width="292" height="1" x="522" y="439.5" rx="0.5" transform="rotate(45, 668, 440)" opacity="0.86"></rect><rect width="100" height="1" x="66" y="770.5" rx="0.5" transform="rotate(45, 116, 771)" opacity="0.87"></rect><rect width="361" height="1" x="248.5" y="101.5" rx="0.5" transform="rotate(45, 429, 102)" opacity="0.31"></rect><rect width="382" height="1" x="408" y="432.5" rx="0.5" transform="rotate(45, 599, 433)" opacity="0.80"></rect><rect width="333" height="1" x="-143.5" y="647.5" rx="0.5" transform="rotate(45, 23, 648)" opacity="0.18"></rect><rect width="299" height="1" x="72.5" y="437.5" rx="0.5" transform="rotate(45, 222, 438)" opacity="0.40"></rect><rect width="250" height="1" x="134" y="180.5" rx="0.5" transform="rotate(45, 259, 181)" opacity="0.80"></rect><rect width="77" height="1" x="273.5" y="662.5" rx="0.5" transform="rotate(45, 312, 663)" opacity="0.54"></rect><rect width="134" height="1" x="278" y="198.5" rx="0.5" transform="rotate(45, 345, 199)" opacity="0.42"></rect><rect width="337" height="1" x="151.5" y="110.5" rx="0.5" transform="rotate(45, 320, 111)" opacity="0.61"></rect><rect width="404" height="1" x="332" y="348.5" rx="0.5" transform="rotate(45, 534, 349)" opacity="0.66"></rect><rect width="238" height="1" x="356" y="387.5" rx="0.5" transform="rotate(45, 475, 388)" opacity="0.14"></rect><rect width="102" height="1" x="595" y="596.5" rx="0.5" transform="rotate(45, 646, 597)" opacity="0.30"></rect><rect width="49" height="1" x="363.5" y="701.5" rx="0.5" transform="rotate(45, 388, 702)" opacity="0.18"></rect><rect width="228" height="1" x="20" y="49.5" rx="0.5" transform="rotate(45, 134, 50)" opacity="0.29"></rect><rect width="96" height="1" x="200" y="731.5" rx="0.5" transform="rotate(45, 248, 732)" opacity="0.37"></rect><rect width="98" height="1" x="118" y="657.5" rx="0.5" transform="rotate(45, 167, 658)" opacity="0.68"></rect><rect width="428" height="1" x="431" y="31.5" rx="0.5" transform="rotate(45, 645, 32)" opacity="0.40"></rect><rect width="106" height="1" x="390" y="599.5" rx="0.5" transform="rotate(45, 443, 600)" opacity="0.27"></rect><rect width="282" height="1" x="97" y="340.5" rx="0.5" transform="rotate(45, 238, 341)" opacity="0.30"></rect><rect width="165" height="1" x="-33.5" y="40.5" rx="0.5" transform="rotate(45, 49, 41)" opacity="0.43"></rect><rect width="379" height="1" x="450.5" y="207.5" rx="0.5" transform="rotate(45, 640, 208)" opacity="0.38"></rect><rect width="334" height="1" x="-128" y="272.5" rx="0.5" transform="rotate(45, 39, 273)" opacity="0.91"></rect><rect width="193" height="1" x="83.5" y="261.5" rx="0.5" transform="rotate(45, 180, 262)" opacity="0.74"></rect><rect width="57" height="1" x="659.5" y="662.5" rx="0.5" transform="rotate(45, 688, 663)" opacity="0.75"></rect><rect width="326" height="1" x="-21" y="548.5" rx="0.5" transform="rotate(45, 142, 549)" opacity="0.94"></rect><rect width="56" height="1" x="536" y="615.5" rx="0.5" transform="rotate(45, 564, 616)" opacity="0.37"></rect><rect width="210" height="1" x="-63" y="742.5" rx="0.5" transform="rotate(45, 42, 743)" opacity="0.85"></rect><rect width="241" height="1" x="241.5" y="654.5" rx="0.5" transform="rotate(45, 362, 655)" opacity="0.52"></rect><rect width="350" height="1" x="-14" y="165.5" rx="0.5" transform="rotate(45, 161, 166)" opacity="0.19"></rect><rect width="271" height="1" x="637.5" y="252.5" rx="0.5" transform="rotate(45, 773, 253)" opacity="0.70"></rect><rect width="157" height="1" x="652.5" y="111.5" rx="0.5" transform="rotate(45, 731, 112)" opacity="0.88"></rect><rect width="212" height="1" x="315" y="650.5" rx="0.5" transform="rotate(45, 421, 651)" opacity="0.43"></rect><rect width="319" height="1" x="101.5" y="22.5" rx="0.5" transform="rotate(45, 261, 23)" opacity="0.85"></rect><rect width="279" height="1" x="-58.5" y="642.5" rx="0.5" transform="rotate(45, 81, 643)" opacity="0.48"></rect><rect width="160" height="1" x="209" y="145.5" rx="0.5" transform="rotate(45, 289, 146)" opacity="0.97"></rect><rect width="253" height="1" x="82.5" y="205.5" rx="0.5" transform="rotate(45, 209, 206)" opacity="0.65"></rect><rect width="406" height="1" x="220" y="26.5" rx="0.5" transform="rotate(45, 423, 27)" opacity="0.55"></rect><rect width="111" height="1" x="123.5" y="780.5" rx="0.5" transform="rotate(45, 179, 781)" opacity="0.39"></rect><rect width="46" height="1" x="720" y="37.5" rx="0.5" transform="rotate(45, 743, 38)" opacity="0.22"></rect><rect width="306" height="1" x="-126" y="523.5" rx="0.5" transform="rotate(45, 27, 524)" opacity="0.57"></rect><rect width="104" height="1" x="593" y="767.5" rx="0.5" transform="rotate(45, 645, 768)" opacity="0.37"></rect><rect width="342" height="1" x="431" y="720.5" rx="0.5" transform="rotate(45, 602, 721)" opacity="0.67"></rect><rect width="537" height="1" x="485.5" y="558.5" rx="0.5" transform="rotate(45, 754, 559)" opacity="0.57"></rect><rect width="90" height="1" x="590" y="283.5" rx="0.5" transform="rotate(45, 635, 284)" opacity="0.12"></rect><rect width="343" height="1" x="324.5" y="632.5" rx="0.5" transform="rotate(45, 496, 633)" opacity="0.48"></rect><rect width="62" height="1" x="8" y="369.5" rx="0.5" transform="rotate(45, 39, 370)" opacity="0.77"></rect><rect width="394" height="1" x="-150" y="120.5" rx="0.5" transform="rotate(45, 47, 121)" opacity="0.38"></rect><rect width="323" height="1" x="472.5" y="352.5" rx="0.5" transform="rotate(45, 634, 353)" opacity="0.60"></rect><rect width="35" height="1" x="322.5" y="20.5" rx="0.5" transform="rotate(45, 340, 21)" opacity="0.34"></rect><rect width="75" height="1" x="483.5" y="689.5" rx="0.5" transform="rotate(45, 521, 690)" opacity="0.79"></rect><rect width="101" height="1" x="193.5" y="777.5" rx="0.5" transform="rotate(45, 244, 778)" opacity="0.81"></rect><rect width="273" height="1" x="316.5" y="467.5" rx="0.5" transform="rotate(45, 453, 468)" opacity="0.33"></rect><rect width="152" height="1" x="209" y="688.5" rx="0.5" transform="rotate(45, 285, 689)" opacity="0.47"></rect><rect width="86" height="1" x="457" y="763.5" rx="0.5" transform="rotate(45, 500, 764)" opacity="0.98"></rect><rect width="381" height="1" x="82.5" y="241.5" rx="0.5" transform="rotate(45, 273, 242)" opacity="0.31"></rect><rect width="455" height="1" x="412.5" y="123.5" rx="0.5" transform="rotate(45, 640, 124)" opacity="0.87"></rect><rect width="137" height="1" x="20.5" y="551.5" rx="0.5" transform="rotate(45, 89, 552)" opacity="0.17"></rect><rect width="301" height="1" x="201.5" y="375.5" rx="0.5" transform="rotate(45, 352, 376)" opacity="0.97"></rect><rect width="181" height="1" x="388.5" y="275.5" rx="0.5" transform="rotate(45, 479, 276)" opacity="0.64"></rect><rect width="77" height="1" x="261.5" y="49.5" rx="0.5" transform="rotate(45, 300, 50)" opacity="0.52"></rect><rect width="277" height="1" x="494.5" y="670.5" rx="0.5" transform="rotate(45, 633, 671)" opacity="0.77"></rect><rect width="158" height="1" x="484" y="765.5" rx="0.5" transform="rotate(45, 563, 766)" opacity="0.12"></rect><rect width="312" height="1" x="-51" y="239.5" rx="0.5" transform="rotate(45, 105, 240)" opacity="0.25"></rect><rect width="241" height="1" x="18.5" y="341.5" rx="0.5" transform="rotate(45, 139, 342)" opacity="0.43"></rect><rect width="475" height="1" x="516.5" y="386.5" rx="0.5" transform="rotate(45, 754, 387)" opacity="0.11"></rect><rect width="102" height="1" x="627" y="380.5" rx="0.5" transform="rotate(45, 678, 381)" opacity="0.41"></rect><rect width="471" height="1" x="463.5" y="316.5" rx="0.5" transform="rotate(45, 699, 317)" opacity="0.16"></rect><rect width="209" height="1" x="622.5" y="192.5" rx="0.5" transform="rotate(45, 727, 193)" opacity="0.08"></rect><rect width="231" height="1" x="-2.5" y="131.5" rx="0.5" transform="rotate(45, 113, 132)" opacity="0.16"></rect><rect width="241" height="1" x="103.5" y="136.5" rx="0.5" transform="rotate(45, 224, 137)" opacity="0.74"></rect><rect width="218" height="1" x="446" y="271.5" rx="0.5" transform="rotate(45, 555, 272)" opacity="0.77"></rect><rect width="136" height="1" x="27" y="711.5" rx="0.5" transform="rotate(45, 95, 712)" opacity="0.88"></rect><rect width="317" height="1" x="105.5" y="520.5" rx="0.5" transform="rotate(45, 264, 521)" opacity="0.26"></rect><rect width="316" height="1" x="544" y="487.5" rx="0.5" transform="rotate(45, 702, 488)" opacity="0.31"></rect><rect width="227" height="1" x="86.5" y="532.5" rx="0.5" transform="rotate(45, 200, 533)" opacity="0.42"></rect><rect width="266" height="1" x="405" y="463.5" rx="0.5" transform="rotate(45, 538, 464)" opacity="0.89"></rect><rect width="175" height="1" x="186.5" y="603.5" rx="0.5" transform="rotate(45, 274, 604)" opacity="0.56"></rect><rect width="241" height="1" x="78.5" y="683.5" rx="0.5" transform="rotate(45, 199, 684)" opacity="0.44"></rect><rect width="120" height="1" x="252" y="306.5" rx="0.5" transform="rotate(45, 312, 307)" opacity="0.83"></rect><rect width="316" height="1" x="36" y="739.5" rx="0.5" transform="rotate(45, 194, 740)" opacity="0.90"></rect><rect width="416" height="1" x="137" y="564.5" rx="0.5" transform="rotate(45, 345, 565)" opacity="0.19"></rect></g></svg>